<svg width="56" height="77" viewBox="0 0 56 77" fill="none" xmlns="http://www.w3.org/2000/svg">
<mask id="path-1-outside-1_80_964" maskUnits="userSpaceOnUse" x="-0.753906" y="-0.617432" width="57" height="78" fill="#FFB700">
<rect fill="white" x="-0.753906" y="-0.617432" width="57" height="78"/>
<path d="M44.7763 75.4691C48.9371 71.8995 51.9023 67.0215 53.3346 61.7382C54.7698 56.424 54.6993 50.7447 52.8735 45.5308C51.1063 40.4849 47.7387 36.0443 43.5126 32.7931C41.3998 31.1644 39.0462 29.8305 36.5569 28.864C34.0496 27.8895 31.3417 27.245 28.6476 27.1634C25.8725 27.0801 22.9297 27.6295 20.7695 29.497C18.4922 31.4779 16.9611 34.3178 16.2955 37.2421C15.6262 40.2034 15.6089 43.3905 16.5043 46.3047C16.9025 47.5978 17.4415 48.8547 18.2933 49.9112C19.0502 50.8524 20.0009 51.6627 21.0315 52.2935C22.9627 53.4802 25.5462 54.3123 27.7289 53.3019C28.853 52.7812 29.7615 51.7839 30.5223 50.8284C31.4045 49.7163 32.1559 48.4728 32.6953 47.1649C33.2266 45.8751 33.4776 44.4518 33.6985 43.0817C33.9407 41.5577 34.0777 40.0234 34.1158 38.4796C34.1853 35.3974 33.8691 32.3025 33.157 29.3002C32.463 26.3682 31.4322 23.4347 29.9276 20.8169C28.4825 18.2922 26.5364 16.1057 24.2878 14.2703C19.2883 10.1824 13.0603 8.07149 6.82491 6.73993C5.21104 6.39544 3.59234 6.1004 1.96505 5.82948C1.63366 5.77223 1.31737 6.07214 1.28665 6.3874C1.25231 6.73975 1.51317 7.00855 1.84457 7.06581C8.0891 8.1112 14.4736 9.51347 19.9778 12.7769C22.3316 14.1733 24.5119 15.8772 26.3278 17.9263C28.1884 20.0296 29.5195 22.4433 30.5383 25.0512C32.6718 30.501 33.3693 36.5347 32.5552 42.3275C32.3694 43.6573 32.1535 45.0404 31.6932 46.306C31.2512 47.511 30.5984 48.6392 29.8427 49.6701C29.1812 50.5667 28.3389 51.5891 27.3662 52.0934C26.5114 52.5405 25.5653 52.5794 24.6014 52.4168C22.4906 52.0488 20.4286 50.6684 19.1277 48.9691C18.3799 47.9976 17.8997 46.7776 17.5791 45.5857C17.2035 44.1887 17.033 42.7368 17.0547 41.2974C17.0951 38.4495 17.7597 35.6 19.2881 33.1717C20.02 32.0012 20.9269 30.8915 22.0428 30.0704C23.0508 29.3325 24.243 28.8808 25.4649 28.6379C28.0036 28.1365 30.6816 28.4474 33.1719 29.0832C35.6196 29.7087 37.9817 30.7002 40.1505 32.0099C44.4652 34.6082 48.0783 38.3863 50.3738 42.8784C52.7376 47.502 53.5431 52.7475 52.849 57.8843C52.1567 63.0025 49.9993 67.9156 46.646 71.8447C45.8289 72.8009 44.9375 73.6875 43.9841 74.5057C43.3835 75.0338 44.1701 75.9903 44.7763 75.4691Z"/>
<path d="M5.14434 1.76478C5.11178 1.84273 5.07364 1.91392 5.0349 1.99127C5.05827 1.94362 5.08781 1.89658 5.11118 1.84894C4.83864 2.34032 4.46024 2.76523 4.09482 3.18516C3.71463 3.62861 3.32885 4.06528 2.9369 4.50134C2.71318 4.74788 2.48328 4.9938 2.25338 5.23973C2.28851 5.19947 2.32303 5.16539 2.36434 5.12573C2.09932 5.41192 1.81695 5.68393 1.5575 5.9769C1.2358 6.33245 1.14073 6.85987 1.37974 7.28879C1.54984 7.59242 1.79954 7.84764 2.01593 8.12458C2.21617 8.37499 2.40963 8.63097 2.59013 8.89194C2.79852 9.18682 3.00013 9.48728 3.18938 9.78654C3.16269 9.74025 3.1354 9.70015 3.10253 9.65326C3.62126 10.4776 4.06777 11.3386 4.44826 12.2369C4.55458 12.4906 4.66029 12.7505 4.75922 13.016C4.80778 13.158 4.96385 13.2856 5.10241 13.3365C5.24655 13.3942 5.44617 13.395 5.58442 13.3211C5.72267 13.2472 5.85217 13.135 5.90492 12.9779C5.95828 12.8146 5.94861 12.6577 5.88949 12.4959C5.26604 10.8251 4.40242 9.24954 3.34326 7.82337C3.20001 7.62844 3.04998 7.43908 2.89994 7.24973C2.74931 7.06656 2.57952 6.88775 2.44924 6.68784C2.47593 6.73413 2.50321 6.77423 2.53609 6.82111C2.50382 6.76805 2.47774 6.71558 2.45285 6.65075C2.46658 6.70201 2.48648 6.7539 2.50021 6.80516C2.48588 6.76008 2.47773 6.71559 2.47576 6.67172C2.47652 6.72796 2.47729 6.78418 2.48424 6.84102C2.48167 6.80332 2.48589 6.76006 2.49568 6.72357C2.48408 6.7786 2.47246 6.83365 2.45468 6.88808C2.46508 6.84541 2.48105 6.80953 2.49703 6.77364C2.47367 6.82129 2.44412 6.86833 2.42076 6.91597C2.46628 6.83304 2.52297 6.76367 2.58583 6.69491C2.55071 6.73517 2.51618 6.76925 2.47487 6.8089C3.53934 5.6833 4.6094 4.5645 5.58158 3.36126C5.865 3.01446 6.11312 2.64549 6.29687 2.23281C6.36078 2.08927 6.34297 1.88784 6.28144 1.75079C6.21991 1.61375 6.0836 1.47568 5.93825 1.43032C5.61409 1.29888 5.28754 1.448 5.14434 1.76478Z"/>
</mask>
<path d="M44.7763 75.4691C48.9371 71.8995 51.9023 67.0215 53.3346 61.7382C54.7698 56.424 54.6993 50.7447 52.8735 45.5308C51.1063 40.4849 47.7387 36.0443 43.5126 32.7931C41.3998 31.1644 39.0462 29.8305 36.5569 28.864C34.0496 27.8895 31.3417 27.245 28.6476 27.1634C25.8725 27.0801 22.9297 27.6295 20.7695 29.497C18.4922 31.4779 16.9611 34.3178 16.2955 37.2421C15.6262 40.2034 15.6089 43.3905 16.5043 46.3047C16.9025 47.5978 17.4415 48.8547 18.2933 49.9112C19.0502 50.8524 20.0009 51.6627 21.0315 52.2935C22.9627 53.4802 25.5462 54.3123 27.7289 53.3019C28.853 52.7812 29.7615 51.7839 30.5223 50.8284C31.4045 49.7163 32.1559 48.4728 32.6953 47.1649C33.2266 45.8751 33.4776 44.4518 33.6985 43.0817C33.9407 41.5577 34.0777 40.0234 34.1158 38.4796C34.1853 35.3974 33.8691 32.3025 33.157 29.3002C32.463 26.3682 31.4322 23.4347 29.9276 20.8169C28.4825 18.2922 26.5364 16.1057 24.2878 14.2703C19.2883 10.1824 13.0603 8.07149 6.82491 6.73993C5.21104 6.39544 3.59234 6.1004 1.96505 5.82948C1.63366 5.77223 1.31737 6.07214 1.28665 6.3874C1.25231 6.73975 1.51317 7.00855 1.84457 7.06581C8.0891 8.1112 14.4736 9.51347 19.9778 12.7769C22.3316 14.1733 24.5119 15.8772 26.3278 17.9263C28.1884 20.0296 29.5195 22.4433 30.5383 25.0512C32.6718 30.501 33.3693 36.5347 32.5552 42.3275C32.3694 43.6573 32.1535 45.0404 31.6932 46.306C31.2512 47.511 30.5984 48.6392 29.8427 49.6701C29.1812 50.5667 28.3389 51.5891 27.3662 52.0934C26.5114 52.5405 25.5653 52.5794 24.6014 52.4168C22.4906 52.0488 20.4286 50.6684 19.1277 48.9691C18.3799 47.9976 17.8997 46.7776 17.5791 45.5857C17.2035 44.1887 17.033 42.7368 17.0547 41.2974C17.0951 38.4495 17.7597 35.6 19.2881 33.1717C20.02 32.0012 20.9269 30.8915 22.0428 30.0704C23.0508 29.3325 24.243 28.8808 25.4649 28.6379C28.0036 28.1365 30.6816 28.4474 33.1719 29.0832C35.6196 29.7087 37.9817 30.7002 40.1505 32.0099C44.4652 34.6082 48.0783 38.3863 50.3738 42.8784C52.7376 47.502 53.5431 52.7475 52.849 57.8843C52.1567 63.0025 49.9993 67.9156 46.646 71.8447C45.8289 72.8009 44.9375 73.6875 43.9841 74.5057C43.3835 75.0338 44.1701 75.9903 44.7763 75.4691Z" fill="#FFB700"/>
<path d="M5.14434 1.76478C5.11178 1.84273 5.07364 1.91392 5.0349 1.99127C5.05827 1.94362 5.08781 1.89658 5.11118 1.84894C4.83864 2.34032 4.46024 2.76523 4.09482 3.18516C3.71463 3.62861 3.32885 4.06528 2.9369 4.50134C2.71318 4.74788 2.48328 4.9938 2.25338 5.23973C2.28851 5.19947 2.32303 5.16539 2.36434 5.12573C2.09932 5.41192 1.81695 5.68393 1.5575 5.9769C1.2358 6.33245 1.14073 6.85987 1.37974 7.28879C1.54984 7.59242 1.79954 7.84764 2.01593 8.12458C2.21617 8.37499 2.40963 8.63097 2.59013 8.89194C2.79852 9.18682 3.00013 9.48728 3.18938 9.78654C3.16269 9.74025 3.1354 9.70015 3.10253 9.65326C3.62126 10.4776 4.06777 11.3386 4.44826 12.2369C4.55458 12.4906 4.66029 12.7505 4.75922 13.016C4.80778 13.158 4.96385 13.2856 5.10241 13.3365C5.24655 13.3942 5.44617 13.395 5.58442 13.3211C5.72267 13.2472 5.85217 13.135 5.90492 12.9779C5.95828 12.8146 5.94861 12.6577 5.88949 12.4959C5.26604 10.8251 4.40242 9.24954 3.34326 7.82337C3.20001 7.62844 3.04998 7.43908 2.89994 7.24973C2.74931 7.06656 2.57952 6.88775 2.44924 6.68784C2.47593 6.73413 2.50321 6.77423 2.53609 6.82111C2.50382 6.76805 2.47774 6.71558 2.45285 6.65075C2.46658 6.70201 2.48648 6.7539 2.50021 6.80516C2.48588 6.76008 2.47773 6.71559 2.47576 6.67172C2.47652 6.72796 2.47729 6.78418 2.48424 6.84102C2.48167 6.80332 2.48589 6.76006 2.49568 6.72357C2.48408 6.7786 2.47246 6.83365 2.45468 6.88808C2.46508 6.84541 2.48105 6.80953 2.49703 6.77364C2.47367 6.82129 2.44412 6.86833 2.42076 6.91597C2.46628 6.83304 2.52297 6.76367 2.58583 6.69491C2.55071 6.73517 2.51618 6.76925 2.47487 6.8089C3.53934 5.6833 4.6094 4.5645 5.58158 3.36126C5.865 3.01446 6.11312 2.64549 6.29687 2.23281C6.36078 2.08927 6.34297 1.88784 6.28144 1.75079C6.21991 1.61375 6.0836 1.47568 5.93825 1.43032C5.61409 1.29888 5.28754 1.448 5.14434 1.76478Z" fill="#FFB700"/>
<path d="M44.7763 75.4691C48.9371 71.8995 51.9023 67.0215 53.3346 61.7382C54.7698 56.424 54.6993 50.7447 52.8735 45.5308C51.1063 40.4849 47.7387 36.0443 43.5126 32.7931C41.3998 31.1644 39.0462 29.8305 36.5569 28.864C34.0496 27.8895 31.3417 27.245 28.6476 27.1634C25.8725 27.0801 22.9297 27.6295 20.7695 29.497C18.4922 31.4779 16.9611 34.3178 16.2955 37.2421C15.6262 40.2034 15.6089 43.3905 16.5043 46.3047C16.9025 47.5978 17.4415 48.8547 18.2933 49.9112C19.0502 50.8524 20.0009 51.6627 21.0315 52.2935C22.9627 53.4802 25.5462 54.3123 27.7289 53.3019C28.853 52.7812 29.7615 51.7839 30.5223 50.8284C31.4045 49.7163 32.1559 48.4728 32.6953 47.1649C33.2266 45.8751 33.4776 44.4518 33.6985 43.0817C33.9407 41.5577 34.0777 40.0234 34.1158 38.4796C34.1853 35.3974 33.8691 32.3025 33.157 29.3002C32.463 26.3682 31.4322 23.4347 29.9276 20.8169C28.4825 18.2922 26.5364 16.1057 24.2878 14.2703C19.2883 10.1824 13.0603 8.07149 6.82491 6.73993C5.21104 6.39544 3.59234 6.1004 1.96505 5.82948C1.63366 5.77223 1.31737 6.07214 1.28665 6.3874C1.25231 6.73975 1.51317 7.00855 1.84457 7.06581C8.0891 8.1112 14.4736 9.51347 19.9778 12.7769C22.3316 14.1733 24.5119 15.8772 26.3278 17.9263C28.1884 20.0296 29.5195 22.4433 30.5383 25.0512C32.6718 30.501 33.3693 36.5347 32.5552 42.3275C32.3694 43.6573 32.1535 45.0404 31.6932 46.306C31.2512 47.511 30.5984 48.6392 29.8427 49.6701C29.1812 50.5667 28.3389 51.5891 27.3662 52.0934C26.5114 52.5405 25.5653 52.5794 24.6014 52.4168C22.4906 52.0488 20.4286 50.6684 19.1277 48.9691C18.3799 47.9976 17.8997 46.7776 17.5791 45.5857C17.2035 44.1887 17.033 42.7368 17.0547 41.2974C17.0951 38.4495 17.7597 35.6 19.2881 33.1717C20.02 32.0012 20.9269 30.8915 22.0428 30.0704C23.0508 29.3325 24.243 28.8808 25.4649 28.6379C28.0036 28.1365 30.6816 28.4474 33.1719 29.0832C35.6196 29.7087 37.9817 30.7002 40.1505 32.0099C44.4652 34.6082 48.0783 38.3863 50.3738 42.8784C52.7376 47.502 53.5431 52.7475 52.849 57.8843C52.1567 63.0025 49.9993 67.9156 46.646 71.8447C45.8289 72.8009 44.9375 73.6875 43.9841 74.5057C43.3835 75.0338 44.1701 75.9903 44.7763 75.4691Z" stroke="#FFB700" stroke-width="2" mask="url(#path-1-outside-1_80_964)"/>
<path d="M5.14434 1.76478C5.11178 1.84273 5.07364 1.91392 5.0349 1.99127C5.05827 1.94362 5.08781 1.89658 5.11118 1.84894C4.83864 2.34032 4.46024 2.76523 4.09482 3.18516C3.71463 3.62861 3.32885 4.06528 2.9369 4.50134C2.71318 4.74788 2.48328 4.9938 2.25338 5.23973C2.28851 5.19947 2.32303 5.16539 2.36434 5.12573C2.09932 5.41192 1.81695 5.68393 1.5575 5.9769C1.2358 6.33245 1.14073 6.85987 1.37974 7.28879C1.54984 7.59242 1.79954 7.84764 2.01593 8.12458C2.21617 8.37499 2.40963 8.63097 2.59013 8.89194C2.79852 9.18682 3.00013 9.48728 3.18938 9.78654C3.16269 9.74025 3.1354 9.70015 3.10253 9.65326C3.62126 10.4776 4.06777 11.3386 4.44826 12.2369C4.55458 12.4906 4.66029 12.7505 4.75922 13.016C4.80778 13.158 4.96385 13.2856 5.10241 13.3365C5.24655 13.3942 5.44617 13.395 5.58442 13.3211C5.72267 13.2472 5.85217 13.135 5.90492 12.9779C5.95828 12.8146 5.94861 12.6577 5.88949 12.4959C5.26604 10.8251 4.40242 9.24954 3.34326 7.82337C3.20001 7.62844 3.04998 7.43908 2.89994 7.24973C2.74931 7.06656 2.57952 6.88775 2.44924 6.68784C2.47593 6.73413 2.50321 6.77423 2.53609 6.82111C2.50382 6.76805 2.47774 6.71558 2.45285 6.65075C2.46658 6.70201 2.48648 6.7539 2.50021 6.80516C2.48588 6.76008 2.47773 6.71559 2.47576 6.67172C2.47652 6.72796 2.47729 6.78418 2.48424 6.84102C2.48167 6.80332 2.48589 6.76006 2.49568 6.72357C2.48408 6.7786 2.47246 6.83365 2.45468 6.88808C2.46508 6.84541 2.48105 6.80953 2.49703 6.77364C2.47367 6.82129 2.44412 6.86833 2.42076 6.91597C2.46628 6.83304 2.52297 6.76367 2.58583 6.69491C2.55071 6.73517 2.51618 6.76925 2.47487 6.8089C3.53934 5.6833 4.6094 4.5645 5.58158 3.36126C5.865 3.01446 6.11312 2.64549 6.29687 2.23281C6.36078 2.08927 6.34297 1.88784 6.28144 1.75079C6.21991 1.61375 6.0836 1.47568 5.93825 1.43032C5.61409 1.29888 5.28754 1.448 5.14434 1.76478Z" stroke="#FFB700" stroke-width="2" mask="url(#path-1-outside-1_80_964)"/>
</svg>
